# xmcd
#
# Track frame offsets:
#	150
#	19002
#	40541
#	58737
#	75214
#	96497
#	117994
#	137293
#	167045
#
# Disc length: 2242 seconds
#
# Revision: 1
# Processed by: cddbd v1.5.1PL0 Copyright (c) Steve Scherf et al.
# Submitted via: audiograbber 1.81.02
#
DISCID=6408c009
DTITLE=Avalon - 8 Great Hits (www.gerth.de)
DYEAR=2005
DGENRE=Pop
TTITLE0=Give It Up
TTITLE1=Testify To Love
TTITLE2=Adonai
TTITLE3=Knockin' On Heaven's Door
TTITLE4=Take You At Your Word
TTITLE5=Can't Live A Day
TTITLE6=Always Have, Always Will
TTITLE7=In Not Of
TTITLE8=Daten-CD
EXTD=
EXTT0=
EXTT1=
EXTT2=
EXTT3=
EXTT4=
EXTT5=
EXTT6=
EXTT7=
EXTT8=
PLAYORDER=
